<?xml version="1.0" encoding="UTF-8"?>
<svg width="35.149mm" height="44.353mm" version="1.1" viewBox="0 0 35.149 44.353" xmlns="http://www.w3.org/2000/svg" xmlns:cc="http://creativecommons.org/ns#" xmlns:dc="http://purl.org/dc/elements/1.1/" xmlns:rdf="http://www.w3.org/1999/02/22-rdf-syntax-ns#">
 <metadata>
  <rdf:RDF>
   <cc:Work rdf:about="">
    <dc:format>image/svg+xml</dc:format>
    <dc:type rdf:resource="http://purl.org/dc/dcmitype/StillImage"/>
    <dc:title/>
   </cc:Work>
  </rdf:RDF>
 </metadata>
 <g transform="translate(-85.458 -111.76)" stroke="#2d3142" stroke-linejoin="round" stroke-width="8.865">
  <path d="m112.11 144.41a7.9495 7.7556 43.656 0 1-8.0946 0.12259l-3.9041 3.9703a11.149 11.246 43.656 0 0 8.0138 3.1795 11.149 11.246 43.656 0 0 7.9371-3.5013z" fill="#ee6c4d" style="paint-order:stroke markers fill"/>
  <path d="m103.95 123.21a7.9495 7.7556 47.201 0 1 8.0867 0.3781l4.1421-3.7214a11.149 11.246 47.201 0 0-7.8019-3.6689 11.149 11.246 47.201 0 0-8.1384 3.0039z" fill="#fffaff" style="paint-order:stroke markers fill"/>
  <path d="m97.101 137.95a7.7556 7.9495 44.534 0 1 0.0014-8.0955l-3.9101-3.9644a11.246 11.149 44.534 0 0-3.3019 7.9641 11.246 11.149 44.534 0 0 3.3793 7.9898z" fill="#3e92cc" style="paint-order:stroke markers fill"/>
 </g>
</svg>