<?xml version="1.0" encoding="UTF-8" standalone="no"?>
<svg
   xmlns:dc="http://purl.org/dc/elements/1.1/"
   xmlns:cc="http://creativecommons.org/ns#"
   xmlns:rdf="http://www.w3.org/1999/02/22-rdf-syntax-ns#"
   xmlns:svg="http://www.w3.org/2000/svg"
   xmlns="http://www.w3.org/2000/svg"
   xmlns:sodipodi="http://sodipodi.sourceforge.net/DTD/sodipodi-0.dtd"
   xmlns:inkscape="http://www.inkscape.org/namespaces/inkscape"
   width="210mm"
   height="297mm"
   viewBox="0 0 210 297"
   version="1.1"
   id="svg8"
   inkscape:version="1.0.2-2 (e86c870879, 2021-01-15)"
   sodipodi:docname="logo.svg">
  <defs
     id="defs2" />
  <sodipodi:namedview
     id="base"
     pagecolor="#ffffff"
     bordercolor="#666666"
     borderopacity="1.0"
     inkscape:pageopacity="0.0"
     inkscape:pageshadow="2"
     inkscape:zoom="1.3645977"
     inkscape:cx="353.58966"
     inkscape:cy="552.48309"
     inkscape:document-units="mm"
     inkscape:current-layer="layer1"
     inkscape:document-rotation="0"
     showgrid="false"
     inkscape:window-width="1920"
     inkscape:window-height="1018"
     inkscape:window-x="-8"
     inkscape:window-y="-8"
     inkscape:window-maximized="1" />
  <metadata
     id="metadata5">
    <rdf:RDF>
      <cc:Work
         rdf:about="">
        <dc:format>image/svg+xml</dc:format>
        <dc:type
           rdf:resource="http://purl.org/dc/dcmitype/StillImage" />
        <dc:title></dc:title>
      </cc:Work>
    </rdf:RDF>
  </metadata>
  <g
     inkscape:label="Слой 1"
     inkscape:groupmode="layer"
     id="layer1">
    <path
       id="path921"
       style="fill:#ee6c4d;stroke:#2d3142;stroke-width:8.865;stroke-linejoin:round;paint-order:stroke markers fill;fill-opacity:1"
       d="m 112.10842,144.40654 a 7.9495342,7.7556433 43.656491 0 1 -8.09458,0.12259 l -3.90407,3.97034 a 11.148737,11.245683 43.656491 0 0 8.01376,3.17948 11.148737,11.245683 43.656491 0 0 7.93713,-3.5013 z" />
    <path
       id="path921-1"
       style="fill:#fffaff;stroke:#2d3142;stroke-width:8.865;stroke-linejoin:round;paint-order:stroke markers fill;fill-opacity:1"
       d="m 103.94613,123.21477 a 7.9495342,7.7556433 47.201164 0 1 8.08668,0.3781 l 4.14208,-3.72136 a 11.148737,11.245683 47.201164 0 0 -7.80186,-3.66887 11.148737,11.245683 47.201164 0 0 -8.13842,3.00388 z" />
    <path
       id="path921-4"
       style="fill:#3e92cc;stroke:#2d3142;stroke-width:8.865;stroke-linejoin:round;paint-order:stroke markers fill;fill-opacity:1"
       d="m 97.101449,137.94503 a 7.7556433,7.9495342 44.534073 0 1 0.0014,-8.09552 l -3.910077,-3.96442 a 11.245683,11.148737 44.534073 0 0 -3.301853,7.96413 11.245683,11.148737 44.534073 0 0 3.379332,7.98982 z" />
  </g>
</svg>
